<mxfile host="Electron" agent="Mozilla/5.0 (Windows NT 10.0; Win64; x64) AppleWebKit/537.36 (KHTML, like Gecko) draw.io/28.2.5 Chrome/138.0.7204.251 Electron/37.6.1 Safari/537.36" version="28.2.5">
  <diagram name="Page-1" id="Z6euC-GC6ZMElodOfMUQ">
    <mxGraphModel dx="1226" dy="736" grid="1" gridSize="10" guides="1" tooltips="1" connect="1" arrows="1" fold="1" page="1" pageScale="1" pageWidth="1100" pageHeight="850" math="0" shadow="0">
      <root>
        <mxCell id="0" />
        <mxCell id="1" parent="0" />
        <mxCell id="SAwfPRg_TsU69AdCzOoT-14" value="&lt;font style=&quot;font-size: 18px;&quot;&gt;клијент&lt;/font&gt;" style="shape=umlActor;verticalLabelPosition=bottom;verticalAlign=top;html=1;outlineConnect=0;" parent="1" vertex="1">
          <mxGeometry x="130" y="540" width="30" height="60" as="geometry" />
        </mxCell>
        <mxCell id="SAwfPRg_TsU69AdCzOoT-31" value="&lt;font style=&quot;font-size: 18px;&quot;&gt;клијентски налог&lt;/font&gt;" style="shape=folder;fontStyle=1;tabWidth=180;tabHeight=30;tabPosition=left;html=1;boundedLbl=1;labelInHeader=1;container=1;collapsible=0;whiteSpace=wrap;" parent="1" vertex="1">
          <mxGeometry x="380" y="20" width="800" height="350" as="geometry" />
        </mxCell>
        <mxCell id="SAwfPRg_TsU69AdCzOoT-32" value="" style="html=1;strokeColor=none;resizeWidth=1;resizeHeight=1;fillColor=none;part=1;connectable=0;allowArrows=0;deletable=0;whiteSpace=wrap;" parent="SAwfPRg_TsU69AdCzOoT-31" vertex="1">
          <mxGeometry width="728.2051282051281" height="319.99999999999994" relative="1" as="geometry">
            <mxPoint y="30" as="offset" />
          </mxGeometry>
        </mxCell>
        <mxCell id="SAwfPRg_TsU69AdCzOoT-28" value="&lt;font style=&quot;font-size: 18px;&quot;&gt;преглед сопственог профила&lt;/font&gt;" style="ellipse;whiteSpace=wrap;html=1;" parent="SAwfPRg_TsU69AdCzOoT-31" vertex="1">
          <mxGeometry x="33.00358974358974" y="60" width="274.86153846153843" height="70" as="geometry" />
        </mxCell>
        <mxCell id="SAwfPRg_TsU69AdCzOoT-25" value="&lt;font style=&quot;font-size: 18px;&quot;&gt;ажурирање сопственог профила&lt;/font&gt;" style="ellipse;whiteSpace=wrap;html=1;" parent="SAwfPRg_TsU69AdCzOoT-31" vertex="1">
          <mxGeometry x="15.99564102564102" y="166.41" width="308.89230769230767" height="70" as="geometry" />
        </mxCell>
        <mxCell id="SAwfPRg_TsU69AdCzOoT-24" value="&lt;font style=&quot;font-size: 18px;&quot;&gt;повезивање са Google налогом (&lt;i style=&quot;&quot;&gt;Google Sign-In)&lt;/i&gt;&lt;/font&gt;" style="ellipse;whiteSpace=wrap;html=1;" parent="SAwfPRg_TsU69AdCzOoT-31" vertex="1">
          <mxGeometry x="338.46435897435896" y="60" width="441.025641025641" height="70" as="geometry" />
        </mxCell>
        <mxCell id="SAwfPRg_TsU69AdCzOoT-26" value="&lt;font style=&quot;font-size: 18px;&quot;&gt;преглед сопствених остављених рецензија&lt;/font&gt;" style="ellipse;whiteSpace=wrap;html=1;" parent="SAwfPRg_TsU69AdCzOoT-31" vertex="1">
          <mxGeometry x="356.0087179487179" y="166.41" width="405.9384615384615" height="62.82" as="geometry" />
        </mxCell>
        <mxCell id="SAwfPRg_TsU69AdCzOoT-27" value="&lt;font style=&quot;font-size: 18px;&quot;&gt;одјава&lt;/font&gt;" style="ellipse;whiteSpace=wrap;html=1;" parent="SAwfPRg_TsU69AdCzOoT-31" vertex="1">
          <mxGeometry x="110.00102564102563" y="270" width="119.84615384615383" height="50" as="geometry" />
        </mxCell>
        <mxCell id="SAwfPRg_TsU69AdCzOoT-43" value="&lt;font style=&quot;font-size: 14px;&quot;&gt;&amp;lt;&amp;lt;extend&amp;gt;&amp;gt;&lt;/font&gt;" style="html=1;verticalAlign=bottom;labelBackgroundColor=none;endArrow=open;endFill=0;dashed=1;rounded=0;exitX=0;exitY=1;exitDx=0;exitDy=0;entryX=1;entryY=0;entryDx=0;entryDy=0;" parent="SAwfPRg_TsU69AdCzOoT-31" source="SAwfPRg_TsU69AdCzOoT-24" target="SAwfPRg_TsU69AdCzOoT-25" edge="1">
          <mxGeometry x="0.2969" y="-7" width="160" relative="1" as="geometry">
            <mxPoint x="205.1282051282051" y="190" as="sourcePoint" />
            <mxPoint x="369.23076923076917" y="190" as="targetPoint" />
            <mxPoint y="-1" as="offset" />
          </mxGeometry>
        </mxCell>
        <mxCell id="SAwfPRg_TsU69AdCzOoT-33" value="&lt;font style=&quot;font-size: 18px;&quot;&gt;фризерски салони&lt;/font&gt;" style="shape=folder;fontStyle=1;tabWidth=190;tabHeight=30;tabPosition=left;html=1;boundedLbl=1;labelInHeader=1;container=1;collapsible=0;whiteSpace=wrap;" parent="1" vertex="1">
          <mxGeometry x="380" y="400" width="800" height="350" as="geometry" />
        </mxCell>
        <mxCell id="SAwfPRg_TsU69AdCzOoT-34" value="" style="html=1;strokeColor=none;resizeWidth=1;resizeHeight=1;fillColor=none;part=1;connectable=0;allowArrows=0;deletable=0;whiteSpace=wrap;" parent="SAwfPRg_TsU69AdCzOoT-33" vertex="1">
          <mxGeometry width="800" height="320" relative="1" as="geometry">
            <mxPoint y="30" as="offset" />
          </mxGeometry>
        </mxCell>
        <mxCell id="SAwfPRg_TsU69AdCzOoT-20" value="&lt;font style=&quot;font-size: 18px;&quot;&gt;оцењивање фризерског салона&lt;/font&gt;" style="ellipse;whiteSpace=wrap;html=1;" parent="SAwfPRg_TsU69AdCzOoT-33" vertex="1">
          <mxGeometry x="449.84999999999997" y="200" width="290.85" height="70" as="geometry" />
        </mxCell>
        <mxCell id="SAwfPRg_TsU69AdCzOoT-21" value="&lt;font style=&quot;font-size: 18px;&quot;&gt;преглед рецензија фризерског салона&lt;/font&gt;" style="ellipse;whiteSpace=wrap;html=1;" parent="SAwfPRg_TsU69AdCzOoT-33" vertex="1">
          <mxGeometry x="420" y="70" width="350.56" height="70" as="geometry" />
        </mxCell>
        <mxCell id="SAwfPRg_TsU69AdCzOoT-22" value="&lt;font style=&quot;font-size: 18px;&quot;&gt;претрага и сортирање фризерских салона&lt;/font&gt;" style="ellipse;whiteSpace=wrap;html=1;" parent="SAwfPRg_TsU69AdCzOoT-33" vertex="1">
          <mxGeometry x="9.999999999999996" y="70" width="386.2" height="70" as="geometry" />
        </mxCell>
        <mxCell id="SAwfPRg_TsU69AdCzOoT-23" value="&lt;font style=&quot;font-size: 18px;&quot;&gt;преглед профила фризерског салона&lt;/font&gt;" style="ellipse;whiteSpace=wrap;html=1;" parent="SAwfPRg_TsU69AdCzOoT-33" vertex="1">
          <mxGeometry x="35" y="200" width="336.2" height="70" as="geometry" />
        </mxCell>
        <mxCell id="SAwfPRg_TsU69AdCzOoT-47" value="&lt;font style=&quot;font-size: 14px;&quot;&gt;&amp;lt;&amp;lt;extend&amp;gt;&amp;gt;&lt;/font&gt;" style="html=1;verticalAlign=bottom;labelBackgroundColor=none;endArrow=open;endFill=0;dashed=1;rounded=0;exitX=0.5;exitY=0;exitDx=0;exitDy=0;entryX=0.5;entryY=1;entryDx=0;entryDy=0;" parent="SAwfPRg_TsU69AdCzOoT-33" source="SAwfPRg_TsU69AdCzOoT-23" target="SAwfPRg_TsU69AdCzOoT-22" edge="1">
          <mxGeometry x="-0.3333" y="43" width="160" relative="1" as="geometry">
            <mxPoint x="157.74647887323945" y="230" as="sourcePoint" />
            <mxPoint x="338.02816901408454" y="230" as="targetPoint" />
            <mxPoint as="offset" />
          </mxGeometry>
        </mxCell>
        <mxCell id="SAwfPRg_TsU69AdCzOoT-48" value="&lt;font style=&quot;font-size: 14px;&quot;&gt;&amp;lt;&amp;lt;extend&amp;gt;&amp;gt;&lt;/font&gt;" style="html=1;verticalAlign=bottom;labelBackgroundColor=none;endArrow=open;endFill=0;dashed=1;rounded=0;exitX=0;exitY=0.5;exitDx=0;exitDy=0;entryX=1;entryY=0.5;entryDx=0;entryDy=0;" parent="SAwfPRg_TsU69AdCzOoT-33" source="SAwfPRg_TsU69AdCzOoT-20" target="SAwfPRg_TsU69AdCzOoT-23" edge="1">
          <mxGeometry width="160" relative="1" as="geometry">
            <mxPoint x="304.2253521126761" y="140" as="sourcePoint" />
            <mxPoint x="484.50704225352115" y="140" as="targetPoint" />
          </mxGeometry>
        </mxCell>
        <mxCell id="SAwfPRg_TsU69AdCzOoT-49" value="&lt;font style=&quot;font-size: 14px;&quot;&gt;&amp;lt;&amp;lt;extend&amp;gt;&amp;gt;&lt;/font&gt;" style="html=1;verticalAlign=bottom;labelBackgroundColor=none;endArrow=open;endFill=0;dashed=1;rounded=0;entryX=1;entryY=0;entryDx=0;entryDy=0;exitX=0;exitY=1;exitDx=0;exitDy=0;" parent="SAwfPRg_TsU69AdCzOoT-33" source="SAwfPRg_TsU69AdCzOoT-21" target="SAwfPRg_TsU69AdCzOoT-23" edge="1">
          <mxGeometry x="0.1743" y="-12" width="160" relative="1" as="geometry">
            <mxPoint x="304.2253521126761" y="140" as="sourcePoint" />
            <mxPoint x="484.50704225352115" y="140" as="targetPoint" />
            <mxPoint as="offset" />
          </mxGeometry>
        </mxCell>
        <mxCell id="SAwfPRg_TsU69AdCzOoT-35" value="&lt;font style=&quot;font-size: 18px;&quot;&gt;резервације&lt;/font&gt;" style="shape=folder;fontStyle=1;tabWidth=130;tabHeight=30;tabPosition=left;html=1;boundedLbl=1;labelInHeader=1;container=1;collapsible=0;whiteSpace=wrap;" parent="1" vertex="1">
          <mxGeometry x="380" y="770" width="800" height="350" as="geometry" />
        </mxCell>
        <mxCell id="SAwfPRg_TsU69AdCzOoT-36" value="" style="html=1;strokeColor=none;resizeWidth=1;resizeHeight=1;fillColor=none;part=1;connectable=0;allowArrows=0;deletable=0;whiteSpace=wrap;" parent="SAwfPRg_TsU69AdCzOoT-35" vertex="1">
          <mxGeometry width="800.0000000000002" height="320" relative="1" as="geometry">
            <mxPoint y="30" as="offset" />
          </mxGeometry>
        </mxCell>
        <mxCell id="SAwfPRg_TsU69AdCzOoT-15" value="&lt;font style=&quot;font-size: 18px;&quot;&gt;преглед прихваћених резервација&lt;/font&gt;" style="ellipse;whiteSpace=wrap;html=1;" parent="SAwfPRg_TsU69AdCzOoT-35" vertex="1">
          <mxGeometry x="412.53" y="60" width="323.1" height="70" as="geometry" />
        </mxCell>
        <mxCell id="SAwfPRg_TsU69AdCzOoT-16" value="&lt;font style=&quot;font-size: 18px;&quot;&gt;преглед нерешених резервација&lt;/font&gt;" style="ellipse;whiteSpace=wrap;html=1;" parent="SAwfPRg_TsU69AdCzOoT-35" vertex="1">
          <mxGeometry x="20.000000000000004" y="170" width="299.3" height="70" as="geometry" />
        </mxCell>
        <mxCell id="SAwfPRg_TsU69AdCzOoT-17" value="&lt;font style=&quot;font-size: 18px;&quot;&gt;преглед одбијених резервација&lt;/font&gt;" style="ellipse;whiteSpace=wrap;html=1;" parent="SAwfPRg_TsU69AdCzOoT-35" vertex="1">
          <mxGeometry x="428.16" y="170" width="291.83" height="70" as="geometry" />
        </mxCell>
        <mxCell id="SAwfPRg_TsU69AdCzOoT-18" value="&lt;font style=&quot;font-size: 18px;&quot;&gt;преглед прошлих резервација&lt;/font&gt;" style="ellipse;whiteSpace=wrap;html=1;" parent="SAwfPRg_TsU69AdCzOoT-35" vertex="1">
          <mxGeometry x="247.89" y="260" width="272.11" height="70" as="geometry" />
        </mxCell>
        <mxCell id="SAwfPRg_TsU69AdCzOoT-19" value="&lt;font style=&quot;font-size: 18px;&quot;&gt;креирање резервације&lt;/font&gt;" style="ellipse;whiteSpace=wrap;html=1;" parent="SAwfPRg_TsU69AdCzOoT-35" vertex="1">
          <mxGeometry x="62.603239436619745" y="60" width="214.08450704225356" height="70" as="geometry" />
        </mxCell>
        <mxCell id="SAwfPRg_TsU69AdCzOoT-38" value="" style="endArrow=none;startArrow=none;endFill=0;startFill=0;endSize=8;html=1;verticalAlign=bottom;labelBackgroundColor=none;strokeWidth=3;rounded=0;entryX=0;entryY=0.5;entryDx=0;entryDy=0;" parent="1" target="SAwfPRg_TsU69AdCzOoT-28" edge="1">
          <mxGeometry width="160" relative="1" as="geometry">
            <mxPoint x="120" y="520" as="sourcePoint" />
            <mxPoint x="360" y="120" as="targetPoint" />
            <Array as="points">
              <mxPoint x="120" y="120" />
            </Array>
          </mxGeometry>
        </mxCell>
        <mxCell id="SAwfPRg_TsU69AdCzOoT-39" value="" style="endArrow=none;startArrow=none;endFill=0;startFill=0;endSize=8;html=1;verticalAlign=bottom;labelBackgroundColor=none;strokeWidth=3;rounded=0;entryX=0;entryY=0.5;entryDx=0;entryDy=0;" parent="1" target="SAwfPRg_TsU69AdCzOoT-25" edge="1">
          <mxGeometry width="160" relative="1" as="geometry">
            <mxPoint x="140" y="520" as="sourcePoint" />
            <mxPoint x="340" y="220" as="targetPoint" />
            <Array as="points">
              <mxPoint x="140" y="220" />
            </Array>
          </mxGeometry>
        </mxCell>
        <mxCell id="SAwfPRg_TsU69AdCzOoT-41" value="" style="endArrow=none;startArrow=none;endFill=0;startFill=0;endSize=8;html=1;verticalAlign=bottom;labelBackgroundColor=none;strokeWidth=3;rounded=0;entryX=0;entryY=0.5;entryDx=0;entryDy=0;" parent="1" target="SAwfPRg_TsU69AdCzOoT-27" edge="1">
          <mxGeometry width="160" relative="1" as="geometry">
            <mxPoint x="160" y="520" as="sourcePoint" />
            <mxPoint x="290" y="320" as="targetPoint" />
            <Array as="points">
              <mxPoint x="160" y="320" />
            </Array>
          </mxGeometry>
        </mxCell>
        <mxCell id="SAwfPRg_TsU69AdCzOoT-45" value="" style="endArrow=none;startArrow=none;endFill=0;startFill=0;endSize=8;html=1;verticalAlign=bottom;labelBackgroundColor=none;strokeWidth=3;rounded=0;entryX=0.5;entryY=1;entryDx=0;entryDy=0;" parent="1" target="SAwfPRg_TsU69AdCzOoT-26" edge="1">
          <mxGeometry width="160" relative="1" as="geometry">
            <mxPoint x="180" y="520" as="sourcePoint" />
            <mxPoint x="270" y="360" as="targetPoint" />
            <Array as="points">
              <mxPoint x="180" y="360" />
              <mxPoint x="940" y="350" />
            </Array>
          </mxGeometry>
        </mxCell>
        <mxCell id="SAwfPRg_TsU69AdCzOoT-46" value="" style="endArrow=none;startArrow=none;endFill=0;startFill=0;endSize=8;html=1;verticalAlign=bottom;labelBackgroundColor=none;strokeWidth=3;rounded=0;entryX=0;entryY=0.5;entryDx=0;entryDy=0;" parent="1" target="SAwfPRg_TsU69AdCzOoT-22" edge="1">
          <mxGeometry width="160" relative="1" as="geometry">
            <mxPoint x="190" y="540" as="sourcePoint" />
            <mxPoint x="720" y="470" as="targetPoint" />
          </mxGeometry>
        </mxCell>
        <mxCell id="SAwfPRg_TsU69AdCzOoT-50" value="&lt;font style=&quot;font-size: 14px;&quot;&gt;&amp;lt;&amp;lt;extend&amp;gt;&amp;gt;&lt;/font&gt;" style="html=1;verticalAlign=bottom;labelBackgroundColor=none;endArrow=open;endFill=0;dashed=1;rounded=0;exitX=0.5;exitY=0;exitDx=0;exitDy=0;entryX=0.5;entryY=1;entryDx=0;entryDy=0;" parent="1" source="SAwfPRg_TsU69AdCzOoT-19" target="SAwfPRg_TsU69AdCzOoT-23" edge="1">
          <mxGeometry x="-0.0911" y="36" width="160" relative="1" as="geometry">
            <mxPoint x="590" y="760" as="sourcePoint" />
            <mxPoint x="750" y="760" as="targetPoint" />
            <mxPoint as="offset" />
          </mxGeometry>
        </mxCell>
        <mxCell id="SAwfPRg_TsU69AdCzOoT-52" value="" style="endArrow=none;startArrow=none;endFill=0;startFill=0;endSize=8;html=1;verticalAlign=bottom;labelBackgroundColor=none;strokeWidth=3;rounded=0;entryX=0;entryY=0.5;entryDx=0;entryDy=0;" parent="1" target="SAwfPRg_TsU69AdCzOoT-18" edge="1">
          <mxGeometry width="160" relative="1" as="geometry">
            <mxPoint x="120" y="640" as="sourcePoint" />
            <mxPoint x="280" y="1060" as="targetPoint" />
            <Array as="points">
              <mxPoint x="120" y="1070" />
            </Array>
          </mxGeometry>
        </mxCell>
        <mxCell id="SAwfPRg_TsU69AdCzOoT-53" value="" style="endArrow=none;startArrow=none;endFill=0;startFill=0;endSize=8;html=1;verticalAlign=bottom;labelBackgroundColor=none;strokeWidth=3;rounded=0;entryX=0.5;entryY=1;entryDx=0;entryDy=0;" parent="1" target="SAwfPRg_TsU69AdCzOoT-15" edge="1">
          <mxGeometry width="160" relative="1" as="geometry">
            <mxPoint x="180" y="640" as="sourcePoint" />
            <mxPoint x="390" y="900" as="targetPoint" />
            <Array as="points">
              <mxPoint x="180" y="920" />
              <mxPoint x="954" y="920" />
            </Array>
          </mxGeometry>
        </mxCell>
        <mxCell id="SAwfPRg_TsU69AdCzOoT-54" value="" style="endArrow=none;startArrow=none;endFill=0;startFill=0;endSize=8;html=1;verticalAlign=bottom;labelBackgroundColor=none;strokeWidth=3;rounded=0;entryX=0;entryY=0.5;entryDx=0;entryDy=0;" parent="1" target="SAwfPRg_TsU69AdCzOoT-16" edge="1">
          <mxGeometry width="160" relative="1" as="geometry">
            <mxPoint x="160" y="640" as="sourcePoint" />
            <mxPoint x="340" y="910" as="targetPoint" />
            <Array as="points">
              <mxPoint x="160" y="975" />
            </Array>
          </mxGeometry>
        </mxCell>
        <mxCell id="SAwfPRg_TsU69AdCzOoT-55" value="" style="endArrow=none;startArrow=none;endFill=0;startFill=0;endSize=8;html=1;verticalAlign=bottom;labelBackgroundColor=none;strokeWidth=3;rounded=0;entryX=0.5;entryY=1;entryDx=0;entryDy=0;" parent="1" target="SAwfPRg_TsU69AdCzOoT-17" edge="1">
          <mxGeometry width="160" relative="1" as="geometry">
            <mxPoint x="140" y="640" as="sourcePoint" />
            <mxPoint x="220" y="1030" as="targetPoint" />
            <Array as="points">
              <mxPoint x="140" y="1030" />
              <mxPoint x="895" y="1020" />
              <mxPoint x="954" y="1020" />
            </Array>
          </mxGeometry>
        </mxCell>
        <mxCell id="SAwfPRg_TsU69AdCzOoT-56" value="&lt;font style=&quot;font-size: 14px;&quot;&gt;&amp;lt;&amp;lt;extend&amp;gt;&amp;gt;&lt;/font&gt;" style="html=1;verticalAlign=bottom;labelBackgroundColor=none;endArrow=open;endFill=0;dashed=1;rounded=0;exitX=0.941;exitY=0.748;exitDx=0;exitDy=0;exitPerimeter=0;entryX=0.5;entryY=0;entryDx=0;entryDy=0;" parent="1" source="SAwfPRg_TsU69AdCzOoT-23" target="SAwfPRg_TsU69AdCzOoT-15" edge="1">
          <mxGeometry x="0.2432" y="16" width="160" relative="1" as="geometry">
            <mxPoint x="750" y="740" as="sourcePoint" />
            <mxPoint x="910" y="740" as="targetPoint" />
            <mxPoint y="-1" as="offset" />
          </mxGeometry>
        </mxCell>
        <mxCell id="SAwfPRg_TsU69AdCzOoT-57" value="&lt;font style=&quot;font-size: 14px;&quot;&gt;&amp;lt;&amp;lt;extend&amp;gt;&amp;gt;&lt;/font&gt;" style="html=1;verticalAlign=bottom;labelBackgroundColor=none;endArrow=open;endFill=0;dashed=1;rounded=0;exitX=0.892;exitY=0.821;exitDx=0;exitDy=0;exitPerimeter=0;entryX=0;entryY=0.5;entryDx=0;entryDy=0;" parent="1" source="SAwfPRg_TsU69AdCzOoT-23" target="SAwfPRg_TsU69AdCzOoT-17" edge="1">
          <mxGeometry x="-0.1442" y="41" width="160" relative="1" as="geometry">
            <mxPoint x="710" y="820" as="sourcePoint" />
            <mxPoint x="870" y="820" as="targetPoint" />
            <Array as="points">
              <mxPoint x="720" y="860" />
              <mxPoint x="720" y="975" />
            </Array>
            <mxPoint as="offset" />
          </mxGeometry>
        </mxCell>
        <mxCell id="SAwfPRg_TsU69AdCzOoT-58" value="&lt;font style=&quot;font-size: 14px;&quot;&gt;&amp;lt;&amp;lt;extend&amp;gt;&amp;gt;&lt;/font&gt;" style="html=1;verticalAlign=bottom;labelBackgroundColor=none;endArrow=open;endFill=0;dashed=1;rounded=0;exitX=0.813;exitY=0.907;exitDx=0;exitDy=0;exitPerimeter=0;entryX=1;entryY=0;entryDx=0;entryDy=0;" parent="1" source="SAwfPRg_TsU69AdCzOoT-23" target="SAwfPRg_TsU69AdCzOoT-16" edge="1">
          <mxGeometry x="-0.1658" y="-37" width="160" relative="1" as="geometry">
            <mxPoint x="570" y="790" as="sourcePoint" />
            <mxPoint x="730" y="790" as="targetPoint" />
            <Array as="points">
              <mxPoint x="670" y="860" />
            </Array>
            <mxPoint as="offset" />
          </mxGeometry>
        </mxCell>
        <mxCell id="SAwfPRg_TsU69AdCzOoT-59" value="&lt;font style=&quot;font-size: 14px;&quot;&gt;&amp;lt;&amp;lt;extend&amp;gt;&amp;gt;&lt;/font&gt;" style="html=1;verticalAlign=bottom;labelBackgroundColor=none;endArrow=open;endFill=0;dashed=1;rounded=0;exitX=0.98;exitY=0.614;exitDx=0;exitDy=0;exitPerimeter=0;entryX=1;entryY=0.5;entryDx=0;entryDy=0;" parent="1" source="SAwfPRg_TsU69AdCzOoT-23" target="SAwfPRg_TsU69AdCzOoT-18" edge="1">
          <mxGeometry x="0.6145" width="160" relative="1" as="geometry">
            <mxPoint x="580" y="770" as="sourcePoint" />
            <mxPoint x="740" y="770" as="targetPoint" />
            <Array as="points">
              <mxPoint x="1150" y="770" />
              <mxPoint x="1150" y="1065" />
            </Array>
            <mxPoint as="offset" />
          </mxGeometry>
        </mxCell>
      </root>
    </mxGraphModel>
  </diagram>
</mxfile>
